<mxfile host="app.diagrams.net" modified="2023-08-07T10:54:56.532Z" agent="Mozilla/5.0 (Windows NT 10.0; Win64; x64) AppleWebKit/537.36 (KHTML, like Gecko) Chrome/115.0.0.0 Safari/537.36 Edg/115.0.1901.188" etag="Phfu8WmCY0D6ZovEdt8T" version="21.6.6" type="device">
  <diagram id="C5RBs43oDa-KdzZeNtuy" name="Page-1">
    <mxGraphModel dx="2669" dy="1011" grid="1" gridSize="10" guides="1" tooltips="1" connect="1" arrows="1" fold="1" page="1" pageScale="1" pageWidth="1169" pageHeight="827" math="0" shadow="0">
      <root>
        <mxCell id="WIyWlLk6GJQsqaUBKTNV-0" />
        <mxCell id="WIyWlLk6GJQsqaUBKTNV-1" parent="WIyWlLk6GJQsqaUBKTNV-0" />
        <mxCell id="WIyWlLk6GJQsqaUBKTNV-2" value="" style="rounded=0;html=1;jettySize=auto;orthogonalLoop=1;fontSize=11;endArrow=block;endFill=0;endSize=8;strokeWidth=1;shadow=0;labelBackgroundColor=none;edgeStyle=orthogonalEdgeStyle;" parent="WIyWlLk6GJQsqaUBKTNV-1" source="WIyWlLk6GJQsqaUBKTNV-3" target="WIyWlLk6GJQsqaUBKTNV-6" edge="1">
          <mxGeometry relative="1" as="geometry" />
        </mxCell>
        <mxCell id="WIyWlLk6GJQsqaUBKTNV-3" value="I want to do D&amp;amp;C modelling" style="rounded=1;whiteSpace=wrap;html=1;fontSize=12;glass=0;strokeWidth=1;shadow=0;fontStyle=1" parent="WIyWlLk6GJQsqaUBKTNV-1" vertex="1">
          <mxGeometry x="-580" y="19" width="120" height="40" as="geometry" />
        </mxCell>
        <mxCell id="WIyWlLk6GJQsqaUBKTNV-4" value="Operationsl (Service / Specialty / Clinician)" style="rounded=0;html=1;jettySize=auto;orthogonalLoop=1;fontSize=11;endArrow=block;endFill=0;endSize=8;strokeWidth=1;shadow=0;labelBackgroundColor=none;edgeStyle=orthogonalEdgeStyle;align=left;" parent="WIyWlLk6GJQsqaUBKTNV-1" source="WIyWlLk6GJQsqaUBKTNV-6" target="WIyWlLk6GJQsqaUBKTNV-10" edge="1">
          <mxGeometry y="20" relative="1" as="geometry">
            <mxPoint as="offset" />
          </mxGeometry>
        </mxCell>
        <mxCell id="WIyWlLk6GJQsqaUBKTNV-5" value="Strategic (eg. Region / System)" style="edgeStyle=orthogonalEdgeStyle;rounded=0;html=1;jettySize=auto;orthogonalLoop=1;fontSize=11;endArrow=block;endFill=0;endSize=8;strokeWidth=1;shadow=0;labelBackgroundColor=none;" parent="WIyWlLk6GJQsqaUBKTNV-1" source="WIyWlLk6GJQsqaUBKTNV-6" target="WIyWlLk6GJQsqaUBKTNV-7" edge="1">
          <mxGeometry y="10" relative="1" as="geometry">
            <mxPoint as="offset" />
          </mxGeometry>
        </mxCell>
        <mxCell id="WIyWlLk6GJQsqaUBKTNV-6" value="What granularity?" style="rhombus;whiteSpace=wrap;html=1;shadow=0;fontFamily=Helvetica;fontSize=12;align=center;strokeWidth=1;spacing=6;spacingTop=-4;" parent="WIyWlLk6GJQsqaUBKTNV-1" vertex="1">
          <mxGeometry x="-580" y="94" width="120" height="110" as="geometry" />
        </mxCell>
        <mxCell id="WIyWlLk6GJQsqaUBKTNV-7" value="Look at our system level offers (System Dynamics)" style="rounded=1;whiteSpace=wrap;html=1;fontSize=12;glass=0;strokeWidth=1;shadow=0;" parent="WIyWlLk6GJQsqaUBKTNV-1" vertex="1">
          <mxGeometry x="-210" y="124" width="120" height="50" as="geometry" />
        </mxCell>
        <mxCell id="WIyWlLk6GJQsqaUBKTNV-8" value="&lt;div style=&quot;&quot;&gt;&lt;span style=&quot;background-color: initial;&quot;&gt;Community and Mental Health&lt;/span&gt;&lt;/div&gt;" style="rounded=0;html=1;jettySize=auto;orthogonalLoop=1;fontSize=11;endArrow=block;endFill=0;endSize=8;strokeWidth=1;shadow=0;labelBackgroundColor=none;edgeStyle=orthogonalEdgeStyle;align=left;entryX=1;entryY=0.5;entryDx=0;entryDy=0;" parent="WIyWlLk6GJQsqaUBKTNV-1" source="WIyWlLk6GJQsqaUBKTNV-10" target="3hPNHfaZrTBT4hm4cYUa-2" edge="1">
          <mxGeometry x="0.3333" y="20" relative="1" as="geometry">
            <mxPoint as="offset" />
            <mxPoint x="-880" y="309" as="targetPoint" />
            <Array as="points">
              <mxPoint x="-710" y="309" />
              <mxPoint x="-710" y="309" />
            </Array>
          </mxGeometry>
        </mxCell>
        <mxCell id="WIyWlLk6GJQsqaUBKTNV-9" value="Acute" style="edgeStyle=orthogonalEdgeStyle;rounded=0;html=1;jettySize=auto;orthogonalLoop=1;fontSize=11;endArrow=block;endFill=0;endSize=8;strokeWidth=1;shadow=0;labelBackgroundColor=none;entryX=0;entryY=0.5;entryDx=0;entryDy=0;align=center;exitX=1;exitY=0.5;exitDx=0;exitDy=0;" parent="WIyWlLk6GJQsqaUBKTNV-1" source="WIyWlLk6GJQsqaUBKTNV-10" target="3hPNHfaZrTBT4hm4cYUa-1" edge="1">
          <mxGeometry y="10" relative="1" as="geometry">
            <mxPoint as="offset" />
            <mxPoint x="-557.5" y="311.5" as="sourcePoint" />
            <mxPoint x="-380" y="311.5" as="targetPoint" />
          </mxGeometry>
        </mxCell>
        <mxCell id="WIyWlLk6GJQsqaUBKTNV-10" value="What type of service?" style="rhombus;whiteSpace=wrap;html=1;shadow=0;fontFamily=Helvetica;fontSize=12;align=center;strokeWidth=1;spacing=6;spacingTop=-4;" parent="WIyWlLk6GJQsqaUBKTNV-1" vertex="1">
          <mxGeometry x="-582.5" y="251.5" width="125" height="115" as="geometry" />
        </mxCell>
        <mxCell id="3hPNHfaZrTBT4hm4cYUa-14" value="" style="edgeStyle=orthogonalEdgeStyle;rounded=0;orthogonalLoop=1;jettySize=auto;html=1;entryX=0.5;entryY=0;entryDx=0;entryDy=0;" edge="1" parent="WIyWlLk6GJQsqaUBKTNV-1" source="3hPNHfaZrTBT4hm4cYUa-1" target="3hPNHfaZrTBT4hm4cYUa-23">
          <mxGeometry relative="1" as="geometry">
            <mxPoint x="-270" y="571.5" as="targetPoint" />
          </mxGeometry>
        </mxCell>
        <mxCell id="3hPNHfaZrTBT4hm4cYUa-21" value="1 to 3 patient contacts across pathway" style="edgeLabel;html=1;align=center;verticalAlign=middle;resizable=0;points=[];" vertex="1" connectable="0" parent="3hPNHfaZrTBT4hm4cYUa-14">
          <mxGeometry x="0.4571" relative="1" as="geometry">
            <mxPoint as="offset" />
          </mxGeometry>
        </mxCell>
        <mxCell id="3hPNHfaZrTBT4hm4cYUa-18" style="edgeStyle=orthogonalEdgeStyle;rounded=0;orthogonalLoop=1;jettySize=auto;html=1;entryX=0.458;entryY=0.117;entryDx=0;entryDy=0;entryPerimeter=0;" edge="1" parent="WIyWlLk6GJQsqaUBKTNV-1" source="3hPNHfaZrTBT4hm4cYUa-1" target="3hPNHfaZrTBT4hm4cYUa-6">
          <mxGeometry relative="1" as="geometry">
            <Array as="points">
              <mxPoint x="-270" y="401.5" />
              <mxPoint x="-515" y="401.5" />
            </Array>
          </mxGeometry>
        </mxCell>
        <mxCell id="3hPNHfaZrTBT4hm4cYUa-20" value="Same day / urgent care" style="edgeLabel;html=1;align=center;verticalAlign=middle;resizable=0;points=[];" vertex="1" connectable="0" parent="3hPNHfaZrTBT4hm4cYUa-18">
          <mxGeometry x="0.267" y="-5" relative="1" as="geometry">
            <mxPoint as="offset" />
          </mxGeometry>
        </mxCell>
        <mxCell id="3hPNHfaZrTBT4hm4cYUa-19" style="edgeStyle=orthogonalEdgeStyle;rounded=0;orthogonalLoop=1;jettySize=auto;html=1;entryX=0.5;entryY=0;entryDx=0;entryDy=0;" edge="1" parent="WIyWlLk6GJQsqaUBKTNV-1" source="3hPNHfaZrTBT4hm4cYUa-1" target="3hPNHfaZrTBT4hm4cYUa-8">
          <mxGeometry relative="1" as="geometry">
            <Array as="points">
              <mxPoint x="-270" y="401" />
              <mxPoint x="-80" y="401" />
            </Array>
          </mxGeometry>
        </mxCell>
        <mxCell id="3hPNHfaZrTBT4hm4cYUa-22" value="4+ patient contacts across pathway, &lt;br&gt;or mixed patient caseloads" style="edgeLabel;html=1;align=center;verticalAlign=middle;resizable=0;points=[];" vertex="1" connectable="0" parent="3hPNHfaZrTBT4hm4cYUa-19">
          <mxGeometry x="0.329" y="-3" relative="1" as="geometry">
            <mxPoint as="offset" />
          </mxGeometry>
        </mxCell>
        <mxCell id="3hPNHfaZrTBT4hm4cYUa-1" value="Type of patient contact" style="rhombus;whiteSpace=wrap;html=1;" vertex="1" parent="WIyWlLk6GJQsqaUBKTNV-1">
          <mxGeometry x="-330" y="249" width="120" height="120" as="geometry" />
        </mxCell>
        <mxCell id="3hPNHfaZrTBT4hm4cYUa-42" style="edgeStyle=orthogonalEdgeStyle;rounded=0;orthogonalLoop=1;jettySize=auto;html=1;entryX=0.5;entryY=0;entryDx=0;entryDy=0;" edge="1" parent="WIyWlLk6GJQsqaUBKTNV-1" source="3hPNHfaZrTBT4hm4cYUa-2" target="3hPNHfaZrTBT4hm4cYUa-36">
          <mxGeometry relative="1" as="geometry" />
        </mxCell>
        <mxCell id="3hPNHfaZrTBT4hm4cYUa-45" value="1 - 3 patient contacts across pathway" style="edgeLabel;html=1;align=center;verticalAlign=middle;resizable=0;points=[];" vertex="1" connectable="0" parent="3hPNHfaZrTBT4hm4cYUa-42">
          <mxGeometry x="0.24" y="1" relative="1" as="geometry">
            <mxPoint as="offset" />
          </mxGeometry>
        </mxCell>
        <mxCell id="3hPNHfaZrTBT4hm4cYUa-43" style="edgeStyle=orthogonalEdgeStyle;rounded=0;orthogonalLoop=1;jettySize=auto;html=1;entryX=0.5;entryY=0;entryDx=0;entryDy=0;" edge="1" parent="WIyWlLk6GJQsqaUBKTNV-1" source="3hPNHfaZrTBT4hm4cYUa-2" target="3hPNHfaZrTBT4hm4cYUa-34">
          <mxGeometry relative="1" as="geometry">
            <Array as="points">
              <mxPoint x="-890" y="379" />
              <mxPoint x="-700" y="379" />
            </Array>
          </mxGeometry>
        </mxCell>
        <mxCell id="3hPNHfaZrTBT4hm4cYUa-44" value="4+, or mixed patient cohorts" style="edgeLabel;html=1;align=center;verticalAlign=middle;resizable=0;points=[];" vertex="1" connectable="0" parent="3hPNHfaZrTBT4hm4cYUa-43">
          <mxGeometry x="-0.1672" y="-2" relative="1" as="geometry">
            <mxPoint as="offset" />
          </mxGeometry>
        </mxCell>
        <mxCell id="3hPNHfaZrTBT4hm4cYUa-51" style="edgeStyle=orthogonalEdgeStyle;rounded=0;orthogonalLoop=1;jettySize=auto;html=1;entryX=0.5;entryY=0;entryDx=0;entryDy=0;" edge="1" parent="WIyWlLk6GJQsqaUBKTNV-1" source="3hPNHfaZrTBT4hm4cYUa-2" target="3hPNHfaZrTBT4hm4cYUa-31">
          <mxGeometry relative="1" as="geometry">
            <Array as="points">
              <mxPoint x="-890" y="379" />
              <mxPoint x="-1080" y="379" />
            </Array>
          </mxGeometry>
        </mxCell>
        <mxCell id="3hPNHfaZrTBT4hm4cYUa-52" value="Same day / urgent (1 - 3 pt contacts)" style="edgeLabel;html=1;align=center;verticalAlign=middle;resizable=0;points=[];" vertex="1" connectable="0" parent="3hPNHfaZrTBT4hm4cYUa-51">
          <mxGeometry x="-0.1321" relative="1" as="geometry">
            <mxPoint as="offset" />
          </mxGeometry>
        </mxCell>
        <mxCell id="3hPNHfaZrTBT4hm4cYUa-2" value="Type of patient contact" style="rhombus;whiteSpace=wrap;html=1;" vertex="1" parent="WIyWlLk6GJQsqaUBKTNV-1">
          <mxGeometry x="-950" y="254" width="120" height="110" as="geometry" />
        </mxCell>
        <mxCell id="3hPNHfaZrTBT4hm4cYUa-6" value="ED model" style="rounded=1;whiteSpace=wrap;html=1;" vertex="1" parent="WIyWlLk6GJQsqaUBKTNV-1">
          <mxGeometry x="-570" y="441.5" width="120" height="60" as="geometry" />
        </mxCell>
        <mxCell id="3hPNHfaZrTBT4hm4cYUa-8" value="Caseload model" style="rounded=1;whiteSpace=wrap;html=1;" vertex="1" parent="WIyWlLk6GJQsqaUBKTNV-1">
          <mxGeometry x="-140" y="439" width="120" height="60" as="geometry" />
        </mxCell>
        <mxCell id="3hPNHfaZrTBT4hm4cYUa-10" value="D&amp;amp;C Lite model" style="rounded=1;whiteSpace=wrap;html=1;" vertex="1" parent="WIyWlLk6GJQsqaUBKTNV-1">
          <mxGeometry x="-510" y="711.5" width="120" height="60" as="geometry" />
        </mxCell>
        <mxCell id="3hPNHfaZrTBT4hm4cYUa-11" value="Older (IMAS) models" style="rounded=1;whiteSpace=wrap;html=1;" vertex="1" parent="WIyWlLk6GJQsqaUBKTNV-1">
          <mxGeometry x="-150" y="711.5" width="120" height="60" as="geometry" />
        </mxCell>
        <mxCell id="3hPNHfaZrTBT4hm4cYUa-25" style="edgeStyle=orthogonalEdgeStyle;rounded=0;orthogonalLoop=1;jettySize=auto;html=1;entryX=0.5;entryY=0;entryDx=0;entryDy=0;" edge="1" parent="WIyWlLk6GJQsqaUBKTNV-1" source="3hPNHfaZrTBT4hm4cYUa-23" target="3hPNHfaZrTBT4hm4cYUa-10">
          <mxGeometry relative="1" as="geometry" />
        </mxCell>
        <mxCell id="3hPNHfaZrTBT4hm4cYUa-26" value="Very little data,&lt;br&gt;no prior experience" style="edgeLabel;html=1;align=center;verticalAlign=middle;resizable=0;points=[];" vertex="1" connectable="0" parent="3hPNHfaZrTBT4hm4cYUa-25">
          <mxGeometry x="-0.4128" y="-1" relative="1" as="geometry">
            <mxPoint as="offset" />
          </mxGeometry>
        </mxCell>
        <mxCell id="3hPNHfaZrTBT4hm4cYUa-27" style="edgeStyle=orthogonalEdgeStyle;rounded=0;orthogonalLoop=1;jettySize=auto;html=1;entryX=0.5;entryY=0;entryDx=0;entryDy=0;" edge="1" parent="WIyWlLk6GJQsqaUBKTNV-1" source="3hPNHfaZrTBT4hm4cYUa-23" target="3hPNHfaZrTBT4hm4cYUa-24">
          <mxGeometry relative="1" as="geometry" />
        </mxCell>
        <mxCell id="3hPNHfaZrTBT4hm4cYUa-28" value="Typical appointment / referral &lt;br&gt;and capacity data available" style="edgeLabel;html=1;align=center;verticalAlign=middle;resizable=0;points=[];" vertex="1" connectable="0" parent="3hPNHfaZrTBT4hm4cYUa-27">
          <mxGeometry x="0.0105" relative="1" as="geometry">
            <mxPoint as="offset" />
          </mxGeometry>
        </mxCell>
        <mxCell id="3hPNHfaZrTBT4hm4cYUa-29" style="edgeStyle=orthogonalEdgeStyle;rounded=0;orthogonalLoop=1;jettySize=auto;html=1;entryX=0.5;entryY=0;entryDx=0;entryDy=0;" edge="1" parent="WIyWlLk6GJQsqaUBKTNV-1" source="3hPNHfaZrTBT4hm4cYUa-23" target="3hPNHfaZrTBT4hm4cYUa-11">
          <mxGeometry relative="1" as="geometry" />
        </mxCell>
        <mxCell id="3hPNHfaZrTBT4hm4cYUa-30" value="Data available, have already&lt;br&gt;used IMAS models and&amp;nbsp;&lt;br&gt;prefer to continue using them&lt;br&gt;due to familiarity" style="edgeLabel;html=1;align=center;verticalAlign=middle;resizable=0;points=[];" vertex="1" connectable="0" parent="3hPNHfaZrTBT4hm4cYUa-29">
          <mxGeometry x="-0.3615" y="-6" relative="1" as="geometry">
            <mxPoint y="1" as="offset" />
          </mxGeometry>
        </mxCell>
        <mxCell id="3hPNHfaZrTBT4hm4cYUa-23" value="Data and prior experience" style="rhombus;whiteSpace=wrap;html=1;" vertex="1" parent="WIyWlLk6GJQsqaUBKTNV-1">
          <mxGeometry x="-330" y="501.5" width="120" height="115" as="geometry" />
        </mxCell>
        <mxCell id="3hPNHfaZrTBT4hm4cYUa-24" value="Core model" style="rounded=1;whiteSpace=wrap;html=1;" vertex="1" parent="WIyWlLk6GJQsqaUBKTNV-1">
          <mxGeometry x="-330" y="711.5" width="120" height="60" as="geometry" />
        </mxCell>
        <mxCell id="3hPNHfaZrTBT4hm4cYUa-31" value="Urgent Response model" style="rounded=1;whiteSpace=wrap;html=1;" vertex="1" parent="WIyWlLk6GJQsqaUBKTNV-1">
          <mxGeometry x="-1140" y="439" width="120" height="60" as="geometry" />
        </mxCell>
        <mxCell id="3hPNHfaZrTBT4hm4cYUa-32" value="D&amp;amp;C Lite model" style="rounded=1;whiteSpace=wrap;html=1;" vertex="1" parent="WIyWlLk6GJQsqaUBKTNV-1">
          <mxGeometry x="-1110" y="749" width="120" height="60" as="geometry" />
        </mxCell>
        <mxCell id="3hPNHfaZrTBT4hm4cYUa-33" value="Core model" style="rounded=1;whiteSpace=wrap;html=1;" vertex="1" parent="WIyWlLk6GJQsqaUBKTNV-1">
          <mxGeometry x="-770" y="739" width="120" height="60" as="geometry" />
        </mxCell>
        <mxCell id="3hPNHfaZrTBT4hm4cYUa-34" value="Caseload model" style="rounded=1;whiteSpace=wrap;html=1;" vertex="1" parent="WIyWlLk6GJQsqaUBKTNV-1">
          <mxGeometry x="-760" y="439" width="120" height="60" as="geometry" />
        </mxCell>
        <mxCell id="3hPNHfaZrTBT4hm4cYUa-46" style="edgeStyle=orthogonalEdgeStyle;rounded=0;orthogonalLoop=1;jettySize=auto;html=1;entryX=0.5;entryY=0;entryDx=0;entryDy=0;" edge="1" parent="WIyWlLk6GJQsqaUBKTNV-1" source="3hPNHfaZrTBT4hm4cYUa-36" target="3hPNHfaZrTBT4hm4cYUa-32">
          <mxGeometry relative="1" as="geometry">
            <Array as="points">
              <mxPoint x="-890" y="689" />
              <mxPoint x="-1050" y="689" />
            </Array>
          </mxGeometry>
        </mxCell>
        <mxCell id="3hPNHfaZrTBT4hm4cYUa-48" value="Very little data,&lt;br&gt;no prior experience" style="edgeLabel;html=1;align=center;verticalAlign=middle;resizable=0;points=[];" vertex="1" connectable="0" parent="3hPNHfaZrTBT4hm4cYUa-46">
          <mxGeometry x="0.11" y="5" relative="1" as="geometry">
            <mxPoint as="offset" />
          </mxGeometry>
        </mxCell>
        <mxCell id="3hPNHfaZrTBT4hm4cYUa-47" value="" style="edgeStyle=orthogonalEdgeStyle;rounded=0;orthogonalLoop=1;jettySize=auto;html=1;" edge="1" parent="WIyWlLk6GJQsqaUBKTNV-1" source="3hPNHfaZrTBT4hm4cYUa-36" target="3hPNHfaZrTBT4hm4cYUa-33">
          <mxGeometry relative="1" as="geometry">
            <Array as="points">
              <mxPoint x="-890" y="689" />
              <mxPoint x="-710" y="689" />
            </Array>
          </mxGeometry>
        </mxCell>
        <mxCell id="3hPNHfaZrTBT4hm4cYUa-50" value="Typical appointment / referrall&lt;br&gt;and capacity data available" style="edgeLabel;html=1;align=center;verticalAlign=middle;resizable=0;points=[];" vertex="1" connectable="0" parent="3hPNHfaZrTBT4hm4cYUa-47">
          <mxGeometry x="0.0308" y="-5" relative="1" as="geometry">
            <mxPoint as="offset" />
          </mxGeometry>
        </mxCell>
        <mxCell id="3hPNHfaZrTBT4hm4cYUa-36" value="Data and prior experience" style="rhombus;whiteSpace=wrap;html=1;" vertex="1" parent="WIyWlLk6GJQsqaUBKTNV-1">
          <mxGeometry x="-950" y="519" width="120" height="110" as="geometry" />
        </mxCell>
      </root>
    </mxGraphModel>
  </diagram>
</mxfile>
